<svg id="Group_344" data-name="Group 344" xmlns="http://www.w3.org/2000/svg" width="223.696" height="55.505" viewBox="0 0 223.696 55.505">
  <g id="Group_246" data-name="Group 246" transform="translate(0 0)">
    <path id="Path_324" data-name="Path 324" d="M-621.654,15.983c-.01-.066-.022-.133-.039-.2A27.8,27.8,0,0,0-648.538-4.944a27.985,27.985,0,0,0-27.827,28.123A27.79,27.79,0,0,0-650.9,50.534l.126.011.19.016s.008,0,.012,0c.057,0,.113,0,.17,0a4.679,4.679,0,0,0,4.679-4.679,4.679,4.679,0,0,0-4.679-4.678c-.049,0-.1,0-.148,0a.037.037,0,0,0-.026-.015A18.483,18.483,0,0,1-666.6,18.765,18.12,18.12,0,0,1-653.211,4.951a18.5,18.5,0,0,1,22.5,13.26.037.037,0,0,0,.018.022,4.679,4.679,0,0,0,4.629,4,4.679,4.679,0,0,0,4.679-4.679A4.668,4.668,0,0,0-621.654,15.983Z" transform="translate(676.366 4.944)" fill="#2ec39b"/>
    <rect id="Rectangle_88" data-name="Rectangle 88" width="9.922" height="20.069" rx="4.961" transform="translate(23.168 18.323)" fill="#2ec39b"/>
    <path id="Path_325" data-name="Path 325" d="M-566.157,86.168a4.961,4.961,0,0,0-4.961,4.961v10.147a4.961,4.961,0,0,0,4.961,4.961,4.961,4.961,0,0,0,4.961-4.961V91.129A4.961,4.961,0,0,0-566.157,86.168Z" transform="translate(610.505 -52.071)" fill="#408eff"/>
  </g>
  <g id="Group_247" data-name="Group 247" transform="translate(64.452 11.153)">
    <path id="Path_326" data-name="Path 326" d="M-477.3,38.494h-.157a4.634,4.634,0,0,1-3.575-1.595,9.048,9.048,0,0,0-7.247-3.1c-6.166,0-10.634,4.379-10.634,11.215s4.468,11.26,10.634,11.26c5.222,0,8.638-2.922,9.711-7.518a.908.908,0,0,0-.889-1.106h-8.42a2.145,2.145,0,0,1-2.144-2.144h0a1.922,1.922,0,0,1,1.922-1.922h11.215a3.977,3.977,0,0,1,3.977,3.977h0A15.311,15.311,0,0,1-488.28,60.88a15.506,15.506,0,0,1-15.862-15.862A15.532,15.532,0,0,1-488.28,29.156,15.168,15.168,0,0,1-475.6,35.238,2.069,2.069,0,0,1-477.3,38.494Z" transform="translate(504.142 -27.548)" fill="#383838"/>
    <path id="Path_327" data-name="Path 327" d="M-399.563,71.772c-7.06,0-12.288-5-12.288-12.734s5-12.689,12.288-12.689c7.015,0,11.974,4.87,11.974,12.109h0a2.511,2.511,0,0,1-2.5,2.5h-16.486a6.772,6.772,0,0,0,7.015,6.524,6.079,6.079,0,0,0,4.929-2.074,3.8,3.8,0,0,1,2.91-1.366h0a2.112,2.112,0,0,1,1.69,3.386A11.6,11.6,0,0,1-399.563,71.772Zm-6.971-14.924h13.628c-.089-3.8-3.083-6.211-6.881-6.211C-403.228,50.638-406,52.962-406.534,56.849Z" transform="translate(446.389 -38.306)" fill="#383838"/>
    <path id="Path_328" data-name="Path 328" d="M-336.357,41.343h-2.9V37.187h2.9V33.743a2.677,2.677,0,0,1,2.677-2.677h0a2.461,2.461,0,0,1,2.461,2.461v3.66h5.987v4.155h-5.987V54.97c0,1.832.715,2.592,2.86,2.592h3.128v4.245h-4.021c-4.379,0-7.1-1.832-7.1-6.836Z" transform="translate(400.965 -28.743)" fill="#383838"/>
    <path id="Path_329" data-name="Path 329" d="M-275.563,32.9c6.524,0,11.572,5,11.572,12.6s-5.094,12.823-11.572,12.823a10.463,10.463,0,0,1-8.579-3.977V55.46a2.462,2.462,0,0,1-2.462,2.462h0a2.632,2.632,0,0,1-2.632-2.632V27.314a2.456,2.456,0,0,1,2.456-2.456h0a2.637,2.637,0,0,1,2.638,2.637v9.471A10.527,10.527,0,0,1-275.563,32.9Zm-1.117,4.423c-3.8,0-7.462,2.993-7.462,8.266,0,5.317,3.664,8.311,7.462,8.311,3.842,0,7.506-3.083,7.506-8.4S-272.837,37.324-276.679,37.324Z" transform="translate(369.66 -24.858)" fill="#383838"/>
    <path id="Path_330" data-name="Path 330" d="M-201.207,46.349a10.478,10.478,0,0,1,8.534,3.977v-.849a2.726,2.726,0,0,1,2.726-2.726h0a2.413,2.413,0,0,1,2.413,2.413V68.889a2.481,2.481,0,0,1-2.481,2.481h0a2.658,2.658,0,0,1-2.658-2.658V67.706a10.6,10.6,0,0,1-8.623,4.066c-6.39,0-11.528-5.228-11.528-12.823S-207.685,46.349-201.207,46.349Zm1.073,4.423c-3.8,0-7.462,2.86-7.462,8.177s3.664,8.4,7.462,8.4c3.842,0,7.461-2.993,7.461-8.311C-192.673,53.766-196.292,50.772-200.134,50.772Z" transform="translate(321.844 -38.306)" fill="#383838"/>
    <path id="Path_331" data-name="Path 331" d="M-124.709,24.858h0a2.463,2.463,0,0,1,2.464,2.464V44.071l8.106-9.767a2.769,2.769,0,0,1,2.131-1h0a2.527,2.527,0,0,1,1.859,4.238l-7.449,8.094,7.9,8.549a2.227,2.227,0,0,1-1.636,3.738h0a3.908,3.908,0,0,1-2.961-1.358l-7.946-9.231v8.1a2.486,2.486,0,0,1-2.486,2.486h0a2.608,2.608,0,0,1-2.608-2.608V27.488A2.63,2.63,0,0,1-124.709,24.858Z" transform="translate(268.351 -24.858)" fill="#383838"/>
  </g>
</svg>
