<svg xmlns="http://www.w3.org/2000/svg" width="20.029" height="20.029" viewBox="0 0 20.029 20.029">
    <path id="Icon_awesome-wrench" data-name="Icon awesome-wrench" d="M.167,4.268a.469.469,0,0,1,.787-.216L3.863,6.961l2.655-.442.442-2.655L4.052.955A.47.47,0,0,1,4.273.166a5.606,5.606,0,0,1,6.675,7.242L19.3,15.756a2.5,2.5,0,0,1-3.54,3.54L7.415,10.955A5.614,5.614,0,0,1,.167,4.268Zm17.358,14.2a.939.939,0,1,0-.939-.939A.939.939,0,0,0,17.525,18.464Z" transform="translate(0 0)" fill="#565d63"/>
  </svg>
  