<svg width="197" height="204" viewBox="0 0 197 204" fill="none" xmlns="http://www.w3.org/2000/svg">
<path d="M0.196686 49.5837C0.348358 47.7677 1.50772 46.2077 3.16414 45.5856C4.82469 44.9598 6.68349 45.3858 7.93271 46.6724L33.4921 73.0386L61.8269 63.7832L70.7986 34.5525L45.2388 8.18413C43.9879 6.89497 43.5798 4.97695 44.1824 3.26686C44.7912 1.55336 46.2996 0.359858 48.0636 0.202539C63.5864 -1.17719 78.7959 4.54029 89.7924 15.8864C104.853 31.4248 108.842 54.1153 101.779 73.4562C102.551 74.1271 103.313 74.838 104.064 75.6046L189.382 158.659C189.412 158.689 189.442 158.722 189.475 158.752C199.508 169.104 199.508 185.946 189.475 196.3C179.439 206.65 163.232 206.525 153.2 196.173C153.157 196.131 153.117 196.09 153.078 196.043L73.2727 107.341C72.5452 106.587 71.8697 105.798 71.233 104.988C52.4802 112.288 30.4715 108.183 15.3975 92.6342C4.40347 81.2873 -1.1424 65.5953 0.196686 49.5837ZM166.057 185.117C169.755 188.931 175.743 188.928 179.44 185.117C183.135 181.307 183.135 175.125 179.44 171.313C175.743 167.502 169.755 167.502 166.057 171.313C162.361 175.125 162.361 181.307 166.057 185.117Z" fill="#4B5563" fill-opacity="0.61"/>
</svg>
